<?xml version="1.0" encoding="utf-8"?>
<!-- Generator: Adobe Illustrator 25.2.1, SVG Export Plug-In . SVG Version: 6.00 Build 0)  -->
<svg version="1.1" xmlns="http://www.w3.org/2000/svg" xmlns:xlink="http://www.w3.org/1999/xlink" x="0px" y="0px" viewBox="0 0 300 300" style="enable-background:new 0 0 300 300;" xml:space="preserve">
<style>
.polygon{fill:white;}
</style>
<g id="logo-circle">
	<path d="M-4838.9-5418.8h-292.7c-21.5,0-41.4-11.5-52.1-30.2l-373.6-651.2c-10.6-18.6-10.6-41.4,0.1-59.9l146.8-254.3
		c23.1-40.1,81-40,104.1,0.1l519.5,905.5C-4763.9-5468.7-4792.8-5418.8-4838.9-5418.8z"/>
	<path d="M-5932.5-5418.8h-490.9c-46.2,0-75.1-50-52-90.1l248-429.6c23.2-40.2,81.4-40,104.3,0.5l242.9,429.6
		C-5857.6-5468.4-5886.5-5418.8-5932.5-5418.8z"/>
	<path d="M-5291.1-5388.9l-146.8,254.3c-23.1,40.1-81,40-104.1-0.1l-163-284.1l-324.6-565.7l0,0l-68.1-118.7
		c-10.6-18.6-10.6-41.4,0.1-59.9l146.8-254.3c23.1-40.1,81-40,104.1,0.1l59.1,103l72.8,126.8l354.2,617.3h0l69.7,121.4
		C-5280.4-5430.3-5280.4-5407.4-5291.1-5388.9z"/>
	<path d="M150,4.3C69.5,4.3,4.3,69.5,4.3,150S69.5,295.7,150,295.7S295.7,230.5,295.7,150S230.5,4.3,150,4.3z M76.5,179.3l28.9-50.1
		l28.3,50.1H76.5z M161.6,210L144,179.3l-26.6-46.4l0,0l-7-12.2L128.1,90l9.1,15.9l6,10.4l29,50.6h0l7.1,12.4L161.6,210z
		 M188.1,179.3L154.7,121l17.7-30.7l51.1,89H188.1z"/>
	<g>
		<polygon class="polygon first" points="154.7,121 188.1,179.3 223.5,179.3 172.4,90.3 		"/>
		<polygon class="polygon second" points="76.5,179.3 133.7,179.3 105.4,129.2 		"/>
		<polygon class="polygon third" points="172.2,166.9 143.1,116.3 137.2,105.9 128.1,90 110.4,120.7 117.3,132.9 117.3,132.9 144,179.3 
			161.6,210 179.3,179.3 172.2,166.9 		"/>
	</g>
</g>
</svg>
